<svg width="200" height="200" viewBox="0 0 200 200" fill="none" xmlns="http://www.w3.org/2000/svg">
  <rect width="200" height="200" fill="#F3F4F6"/>
  <rect x="20" y="20" width="60" height="60" fill="#1F2937"/>
  <rect x="30" y="30" width="40" height="40" fill="#F3F4F6"/>
  <rect x="40" y="40" width="20" height="20" fill="#1F2937"/>
  <rect x="120" y="20" width="60" height="60" fill="#1F2937"/>
  <rect x="130" y="30" width="40" height="40" fill="#F3F4F6"/>
  <rect x="140" y="40" width="20" height="20" fill="#1F2937"/>
  <rect x="20" y="120" width="60" height="60" fill="#1F2937"/>
  <rect x="30" y="130" width="40" height="40" fill="#F3F4F6"/>
  <rect x="40" y="140" width="20" height="20" fill="#1F2937"/>
  <rect x="90" y="90" width="20" height="20" fill="#1F2937"/>
  <rect x="120" y="120" width="20" height="20" fill="#1F2937"/>
  <rect x="150" y="120" width="20" height="20" fill="#1F2937"/>
  <rect x="120" y="150" width="20" height="20" fill="#1F2937"/>
  <rect x="150" y="150" width="20" height="20" fill="#1F2937"/>
  <text x="100" y="195" text-anchor="middle" font-size="10" fill="#6B7280">QRコード</text>
</svg>
